<svg xmlns="http://www.w3.org/2000/svg" xmlns:xlink="http://www.w3.org/1999/xlink" xmlns:lucid="lucid" width="1337" height="994"><g transform="translate(0 -80)" lucid:page-tab-id="0_0"><path d="M104.75 594.75c0 8.15-6.6 14.75-14.75 14.75s-14.75-6.6-14.75-14.75S81.85 580 90 580s14.75 6.6 14.75 14.75z" stroke="#5e5e5e" stroke-width="3" fill="#b2d6ef"/><path d="M90 609.5v35.3c0 3.3 1.44 8.27 3.22 11.06L120 698m-30-47.2L60 698m0-73.75h60" stroke="#5e5e5e" stroke-width="3" fill="none"/><path d="M60 586c0-3.3 2.7-6 6-6h48c3.3 0 6 2.7 6 6v128c0 3.3-2.7 6-6 6H66c-3.3 0-6-2.7-6-6z" fill="none"/><use xlink:href="#a" transform="matrix(1,0,0,1,-20,698) translate(86.60493827160494 17.77777777777778)"/><path d="M540 170c0 16.57-49.25 30-110 30s-110-13.43-110-30 49.25-30 110-30 110 13.43 110 30z" stroke="#5e5e5e" stroke-width="3" fill="#b2d6ef"/><use xlink:href="#b" transform="matrix(1,0,0,1,320,140) translate(88.03 33.15)"/><path d="M880 280c0 16.57-49.25 30-110 30s-110-13.43-110-30 49.25-30 110-30 110 13.43 110 30z" stroke="#5e5e5e" stroke-width="3" fill="#ccc"/><use xlink:href="#c" transform="matrix(1,0,0,1,660,250) translate(55.129999999999995 33.15)"/><use xlink:href="#d" transform="matrix(1,0,0,1,660,250) translate(114.03 33.15)"/><path d="M540 390c0 22.1-49.25 40-110 40s-110-17.9-110-40 49.25-40 110-40 110 17.9 110 40z" stroke="#5e5e5e" stroke-width="3" fill="#b2d6ef"/><use xlink:href="#e" transform="matrix(1,0,0,1,320,350) translate(49.605 31.9)"/><use xlink:href="#f" transform="matrix(1,0,0,1,320,350) translate(103.505 31.9)"/><use xlink:href="#g" transform="matrix(1,0,0,1,320,350) translate(81.55499999999999 53.5)"/><path d="M540 500c0 16.57-49.25 30-110 30s-110-13.43-110-30 49.25-30 110-30 110 13.43 110 30z" stroke="#5e5e5e" stroke-width="3" fill="#b2d6ef"/><use xlink:href="#h" transform="matrix(1,0,0,1,320,470) translate(52.78 33.15)"/><use xlink:href="#i" transform="matrix(1,0,0,1,320,470) translate(96.33 33.15)"/><path d="M540 610c0 16.57-49.25 30-110 30s-110-13.43-110-30 49.25-30 110-30 110 13.43 110 30z" stroke="#5e5e5e" stroke-width="3" fill="#b2d6ef"/><use xlink:href="#c" transform="matrix(1,0,0,1,320,580) translate(49.605000000000004 33.15)"/><use xlink:href="#j" transform="matrix(1,0,0,1,320,580) translate(108.50500000000001 33.15)"/><path d="M540 280c0 16.57-49.25 30-110 30s-110-13.43-110-30 49.25-30 110-30 110 13.43 110 30z" stroke="#5e5e5e" stroke-width="3" fill="#b2d6ef"/><use xlink:href="#k" transform="matrix(1,0,0,1,320,250) translate(79.05499999999999 33.15)"/><path d="M540 720c0 16.57-49.25 30-110 30s-110-13.43-110-30 49.25-30 110-30 110 13.43 110 30z" stroke="#5e5e5e" stroke-width="3" fill="#b2d6ef"/><use xlink:href="#l" transform="matrix(1,0,0,1,320,690) translate(53.88000000000001 33.15)"/><use xlink:href="#m" transform="matrix(1,0,0,1,320,690) translate(90.88000000000001 33.15)"/><path d="M540 835c0 19.33-49.25 35-110 35s-110-15.67-110-35 49.25-35 110-35 110 15.67 110 35z" stroke="#5e5e5e" stroke-width="3" fill="#b2d6ef"/><use xlink:href="#h" transform="matrix(1,0,0,1,320,800) translate(57.779999999999994 27.525)"/><use xlink:href="#n" transform="matrix(1,0,0,1,320,800) translate(101.33 27.525)"/><use xlink:href="#o" transform="matrix(1,0,0,1,320,800) translate(75.53 49.125)"/><path d="M542.5 280h4.06m8.13 0h8.1m8.14 0h8.12m8.13 0h8.1m8.14 0h8.12m8.13 0h8.1m8.14 0H640" stroke="#5e5e5e" stroke-width="2" fill="none"/><path d="M542.53 281h-1.08v-.1l.04-.45v-.7l-.02-.44-.03-.3h1.08z" fill="#5e5e5e"/><path d="M655.26 280L641 284.64v-9.28z" stroke="#5e5e5e" stroke-width="2" fill="#5e5e5e"/><path d="M318.94 171.34l-197.6 388.22-1.78-.9 197.6-388.22z" fill="#5e5e5e"/><path d="M121.36 559.54l-.47.9-1.8-.9.47-.9zM319 166.9l-.12.38-.12.46-.1.46-.07.45-.06.45-.03.45v.7l.02.44.05.45-1.43-.7 1.83-3.58z" fill="#5e5e5e"/><use xlink:href="#p" transform="matrix(1,0,0,1,303.04346923485514,189.70111025599576) translate(0 14.222222222222223)"/><path d="M318.85 281.37L141.37 579.65l-1.72-1.02 177.48-298.28z" fill="#5e5e5e"/><path d="M141.38 579.63l-.52.88-1.72-1 .53-.9zM318.76 277.74l-.1.46-.07.45-.06.45-.03.45v.7l.02.44.05.45-1.45-.78 1.7-2.86z" fill="#5e5e5e"/><use xlink:href="#p" transform="matrix(1,0,0,1,304.600791128325,292.69316173538135) translate(0 14.222222222222223)"/><path d="M318.7 391.4L161.4 599.8l-1.6-1.2 157.3-208.4z" fill="#5e5e5e"/><path d="M161.42 599.78l-.62.82-1.6-1.2.62-.82zM318.57 388.5l-.05.76-.02.73v.42l.04.74.02.17-1.48-1.1 1.52-2.03z" fill="#5e5e5e"/><use xlink:href="#p" transform="matrix(1,0,0,1,306.1581130416493,395.685213214767) translate(0 14.222222222222223)"/><path d="M318.4 501.4l-157 138.7-1.3-1.5 157-138.7z" fill="#5e5e5e"/><path d="M161.43 640.07l-.77.68-1.32-1.5.77-.68zM318.6 498.65l-.06.45-.03.45v.7l.02.44.05.45v.1l-.18.18-1.33-1.5 1.53-1.36z" fill="#5e5e5e"/><use xlink:href="#p" transform="matrix(1,0,0,1,306.15811302179486,500.23458658762246) translate(0 14.222222222222223)"/><path d="M317.85 611.25l-156.6 49.4-.6-1.9 156.6-49.4z" fill="#5e5e5e"/><path d="M161.28 660.65l-.98.3-.6-1.9.98-.3zM318.54 609.1l-.03.45v.7l.02.44.04.33-.74.23-.6-1.9 1.34-.43z" fill="#5e5e5e"/><use xlink:href="#p" transform="matrix(1,0,0,1,306.15811302179486,603.226638067008) translate(0 14.222222222222223)"/><path d="M882.3 279.4l3.3-2.6m6.66-5.17l6.64-5.16m6.64-5.17l6.65-5.17m6.63-5.17l6.64-5.17m6.65-5.17l6.64-5.17m6.65-5.17l6.65-5.18m6.64-5.17l6.64-5.17m6.64-5.16l6.64-5.17m6.65-5.17l6.64-5.17m6.66-5.16l3.32-2.58" stroke="#5e5e5e" stroke-width="2" fill="none"/><path d="M882.92 280.16l-1.5 1.18.04-.44.03-.45v-.7l-.02-.44-.05-.45v-.06l.27-.22z" fill="#5e5e5e"/><path d="M1013.93 177l-8.42 12.4-5.68-7.3z" stroke="#5e5e5e" stroke-width="2" fill="#5e5e5e"/><path d="M1237.98 175c0 19.33-49.25 35-110 35s-110-15.67-110-35 49.25-35 110-35 110 15.67 110 35z" stroke="#5e5e5e" stroke-width="3" fill="#e5e5e5"/><use xlink:href="#c" transform="matrix(1,0,0,1,1017.9819383692761,140) translate(38.629999999999995 41.020833333333336)"/><use xlink:href="#q" transform="matrix(1,0,0,1,1017.9819383692761,140) translate(97.53 41.020833333333336)"/><path d="M1240 295c0 19.33-49.25 35-110 35s-110-15.67-110-35 49.25-35 110-35 110 15.67 110 35z" stroke="#5e5e5e" stroke-width="3" fill="#e5e5e5"/><use xlink:href="#r" transform="matrix(1,0,0,1,1020,260) translate(37.08 38.4625)"/><use xlink:href="#s" transform="matrix(1,0,0,1,1020,260) translate(104.03 38.4625)"/><path d="M1000.1 293l-4.2-.47m-8.4-.92l-8.4-.9m-8.4-.93l-8.4-.92m-8.4-.92l-8.4-.92m-8.4-.9l-8.4-.93m-8.4-.92l-8.4-.92m-8.4-.92l-8.4-.9m-8.4-.93l-4.2-.46" stroke="#5e5e5e" stroke-width="2" fill="none"/><path d="M1015.28 294.65l-14.68 3.05 1-9.2z" stroke="#5e5e5e" stroke-width="2" fill="#5e5e5e"/><path d="M882.63 279.12l-.22 2-.95-.12v-.1l.04-.45v-.7l-.02-.44-.03-.3z" fill="#5e5e5e"/><path d="M880 610c0 16.57-49.25 30-110 30s-110-13.43-110-30 49.25-30 110-30 110 13.43 110 30z" stroke="#5e5e5e" stroke-width="3" fill="#ccc"/><use xlink:href="#t" transform="matrix(1,0,0,1,660,580) translate(52.605000000000004 33.15)"/><use xlink:href="#j" transform="matrix(1,0,0,1,660,580) translate(105.50500000000001 33.15)"/><path d="M540 950c0 16.57-49.25 30-110 30s-110-13.43-110-30 49.25-30 110-30 110 13.43 110 30z" stroke="#5e5e5e" stroke-width="3" fill="#b2d6ef"/><use xlink:href="#h" transform="matrix(1,0,0,1,320,920) translate(39.33 33.15)"/><use xlink:href="#u" transform="matrix(1,0,0,1,320,920) translate(82.88 33.15)"/><path d="M318.54 948.6l-1.45 1.36L119.95 741.4l1.45-1.36z" fill="#5e5e5e"/><path d="M121.43 740.06l-1.45 1.37-.7-.74 1.45-1.4zM318.6 948.64l-.06.46-.03.45v.7l.02.44.05.45.06.44-1.56-1.66 1.45-1.37z" fill="#5e5e5e"/><use xlink:href="#p" transform="matrix(1,0,0,1,303.04346923485514,922.9814534518997) translate(0 14.222222222222223)"/><path d="M317.77 718.8l-.48 1.92-156.58-39.5.5-1.94z" fill="#5e5e5e"/><path d="M161.24 679.28l-.5 1.94-.98-.25.48-1.94zM318.74 719.03l-.48 1.94-1-.25.5-1.94z" fill="#5e5e5e"/><use xlink:href="#p" transform="matrix(1,0,0,1,306.15811302179486,706.2186895463936) translate(0 14.222222222222223)"/><path d="M480 276c0-3.3 2.7-6 6-6h228c3.3 0 6 2.7 6 6v48c0 3.3-2.7 6-6 6H486c-3.3 0-6-2.7-6-6z" stroke="#000" stroke-opacity="0" fill="#fff" fill-opacity="0"/><use xlink:href="#v" transform="matrix(1,0,0,1,485,275) translate(72.26543209876544 28.069444444444443)"/><path d="M828.87 281.23c-2.17-2.5-1.9-6.3.62-8.46l172.7-148.85c2.5-2.17 6.3-1.9 8.46.62L1042 160.9c2.16 2.5 1.88 6.3-.63 8.47l-172.7 148.85c-2.5 2.16-6.3 1.88-8.47-.63z" stroke="#000" stroke-opacity="0" fill="#fff" fill-opacity="0"/><use xlink:href="#v" transform="matrix(0.757478857776447,-0.6528596939784913,0.6528596939784913,0.757478857776447,832.0015098723882,277.2094223738277) translate(72.26543209876544 28.069444444444443)"/><path d="M836.38 240.6c.43-3.28 3.45-5.6 6.73-5.16l226.08 29.63c3.3.43 5.6 3.44 5.17 6.73l-6.24 47.6c-.42 3.28-3.43 5.6-6.72 5.16l-226.06-29.63c-3.3-.43-5.6-3.44-5.17-6.73z" stroke="#000" stroke-opacity="0" fill="#fff" fill-opacity="0"/><use xlink:href="#v" transform="matrix(0.991520753370744,0.12994843452351537,-0.12994843452351537,0.991520753370744,841.4718213538067,240.26791119552718) translate(72.26543209876544 28.069444444444443)"/><path d="M318.2 833.62l-1.08 1.68L140.3 721.38l1.08-1.68z" fill="#5e5e5e"/><path d="M141.4 719.7l-1.08 1.7-.86-.56 1.08-1.68zM318.55 833.84l-.04.57V835.34l.03.58.03.33-1.46-.94 1.08-1.7z" fill="#5e5e5e"/><use xlink:href="#p" transform="matrix(1,0,0,1,304.6007911226115,815.3787324458816) translate(0 14.222222222222223)"/><path d="M880 463.16c0 16.56-49.25 30-110 30s-110-13.44-110-30c0-16.57 49.25-30 110-30s110 13.43 110 30z" stroke="#5e5e5e" stroke-width="3" fill="#ccc"/><use xlink:href="#e" transform="matrix(1,0,0,1,660,433.1553335910685) translate(62.10499999999999 33.15)"/><use xlink:href="#w" transform="matrix(1,0,0,1,660,433.1553335910685) translate(116.005 33.15)"/><path d="M880 378.16c0 16.56-49.25 30-110 30s-110-13.44-110-30c0-16.57 49.25-30 110-30s110 13.43 110 30z" stroke="#5e5e5e" stroke-width="3" fill="#ccc"/><use xlink:href="#e" transform="matrix(1,0,0,1,660,348.1553335910685) translate(68.05499999999999 33.15)"/><use xlink:href="#x" transform="matrix(1,0,0,1,660,348.1553335910685) translate(121.95500000000001 33.15)"/><path d="M657.5 378.16H555.53" stroke="#5e5e5e" stroke-width="2" fill="none"/><path d="M658.54 377.26l-.03.45v.71l.02.45.03.3h-1.08v-2h1.08z" fill="#5e5e5e"/><path d="M540.27 378.16l14.26-4.64v9.27z" stroke="#5e5e5e" stroke-width="2" fill="#5e5e5e"/><path d="M657.6 462.73l-106.1-50.38" stroke="#5e5e5e" stroke-width="2" fill="none"/><path d="M658.56 462.08l-.02.18-.03.45v.71l.02.45.05.44-1.43-.68.86-1.8z" fill="#5e5e5e"/><path d="M537.7 405.8l14.88 1.94-3.98 8.37z" stroke="#5e5e5e" stroke-width="2" fill="#5e5e5e"/><path d="M640 610h-4.06m-8.13 0h-8.1m-8.14 0h-8.12m-8.13 0h-8.1m-8.14 0h-8.12m-8.13 0h-8.1m-8.14 0h-4.06" stroke="#5e5e5e" stroke-width="2" fill="none"/><path d="M655.26 610L641 614.64v-9.28z" stroke="#5e5e5e" stroke-width="2" fill="#5e5e5e"/><path d="M542.53 611h-1.08v-.1l.04-.45v-.7l-.02-.44-.03-.3h1.08z" fill="#5e5e5e"/><path d="M480 606c0-3.3 2.7-6 6-6h228c3.3 0 6 2.7 6 6v48c0 3.3-2.7 6-6 6H486c-3.3 0-6-2.7-6-6z" stroke="#000" stroke-opacity="0" fill="#fff" fill-opacity="0"/><use xlink:href="#v" transform="matrix(1,0,0,1,485,605) translate(72.26543209876544 28.069444444444443)"/><path d="M880 720c0 16.57-49.25 30-110 30s-110-13.43-110-30 49.25-30 110-30 110 13.43 110 30z" stroke="#5e5e5e" stroke-width="3" fill="#ccc"/><use xlink:href="#y" transform="matrix(1,0,0,1,660,690) translate(39.629999999999995 33.15)"/><use xlink:href="#z" transform="matrix(1,0,0,1,660,690) translate(101.58 33.15)"/><use xlink:href="#A" transform="matrix(1,0,0,1,660,690) translate(133.48000000000002 33.15)"/><path d="M480 726c0-3.3 2.7-6 6-6h228c3.3 0 6 2.7 6 6v28c0 3.3-2.7 6-6 6H486c-3.3 0-6-2.7-6-6z" stroke="#000" stroke-opacity="0" fill="#fff" fill-opacity="0"/><g><use xlink:href="#v" transform="matrix(1,0,0,1,485,725) translate(72.26543209876544 18.069444444444443)"/></g><path d="M640 720h-4.06m-8.13 0h-8.1m-8.14 0h-8.12m-8.13 0h-8.1m-8.14 0h-8.12m-8.13 0h-8.1m-8.14 0h-4.06" stroke="#5e5e5e" stroke-width="2" fill="none"/><path d="M655.26 720L641 724.64v-9.28z" stroke="#5e5e5e" stroke-width="2" fill="#5e5e5e"/><path d="M542.53 721h-1.08v-.1l.04-.45v-.7l-.02-.44-.03-.3h1.08z" fill="#5e5e5e"/><path d="M900 880c0 16.57-53.73 30-120 30-66.27 0-120-13.43-120-30s53.73-30 120-30c66.27 0 120 13.43 120 30z" stroke="#5e5e5e" stroke-width="3" fill="#ccc"/><g><use xlink:href="#B" transform="matrix(1,0,0,1,660,850) translate(30.579999999999995 33.15)"/><use xlink:href="#C" transform="matrix(1,0,0,1,660,850) translate(90.58 33.15)"/><use xlink:href="#D" transform="matrix(1,0,0,1,660,850) translate(157.48000000000002 33.15)"/></g><path d="M657.57 880.38L543.6 926.92" stroke="#5e5e5e" stroke-width="2" fill="none"/><path d="M658.53 879.23l-.02.4v.56l.02.38.03.38v.1l-.62.25-.76-1.84 1.4-.57z" fill="#5e5e5e"/><path d="M529.47 932.7l11.46-9.7 3.5 8.6z" stroke="#5e5e5e" stroke-width="2" fill="#5e5e5e"/><path d="M657.5 989.84L539.63 971.2" stroke="#5e5e5e" stroke-width="2" fill="none"/><path d="M658.56 989l-.03.23-.02.4v.56l.02.38.03.38v.06l-1.22-.2.3-1.97z" fill="#5e5e5e"/><path d="M524.54 968.83l14.8-2.36-1.44 9.16z" stroke="#5e5e5e" stroke-width="2" fill="#5e5e5e"/><path d="M900 990c0 16.57-53.73 30-120 30-66.27 0-120-13.43-120-30s53.73-30 120-30c66.27 0 120 13.43 120 30z" stroke="#5e5e5e" stroke-width="3" fill="#ccc"/><g><use xlink:href="#E" transform="matrix(1,0,0,1,660,960) translate(28.154999999999983 33.15)"/><use xlink:href="#C" transform="matrix(1,0,0,1,660,960) translate(93.005 33.15)"/><use xlink:href="#D" transform="matrix(1,0,0,1,660,960) translate(159.905 33.15)"/></g><defs><path fill="#333" d="M232-93c-1 65-40 97-104 97C67 4 28-28 28-90v-158h33c8 89-33 224 67 224 102 0 64-133 71-224h33v155" id="F"/><path fill="#333" d="M135-143c-3-34-86-38-87 0 15 53 115 12 119 90S17 21 10-45l28-5c4 36 97 45 98 0-10-56-113-15-118-90-4-57 82-63 122-42 12 7 21 19 24 35" id="G"/><path fill="#333" d="M100-194c63 0 86 42 84 106H49c0 40 14 67 53 68 26 1 43-12 49-29l28 8c-11 28-37 45-77 45C44 4 14-33 15-96c1-61 26-98 85-98zm52 81c6-60-76-77-97-28-3 7-6 17-6 28h103" id="H"/><path fill="#333" d="M114-163C36-179 61-72 57 0H25l-1-190h30c1 12-1 29 2 39 6-27 23-49 58-41v29" id="I"/><g id="a"><use transform="matrix(0.06172839506172839,0,0,0.06172839506172839,0,0)" xlink:href="#F"/><use transform="matrix(0.06172839506172839,0,0,0.06172839506172839,15.987654320987653,0)" xlink:href="#G"/><use transform="matrix(0.06172839506172839,0,0,0.06172839506172839,27.098765432098766,0)" xlink:href="#H"/><use transform="matrix(0.06172839506172839,0,0,0.06172839506172839,39.44444444444444,0)" xlink:href="#I"/></g><path d="M30 0v-248h33v221h125V0H30" id="J"/><path d="M100-194c62-1 85 37 85 99 1 63-27 99-86 99S16-35 15-95c0-66 28-99 85-99zM99-20c44 1 53-31 53-75 0-43-8-75-51-75s-53 32-53 75 10 74 51 75" id="K"/><path d="M177-190C167-65 218 103 67 71c-23-6-38-20-44-43l32-5c15 47 100 32 89-28v-30C133-14 115 1 83 1 29 1 15-40 15-95c0-56 16-97 71-98 29-1 48 16 59 35 1-10 0-23 2-32h30zM94-22c36 0 50-32 50-73 0-42-14-75-50-75-39 0-46 34-46 75s6 73 46 73" id="L"/><path d="M24-231v-30h32v30H24zM24 0v-190h32V0H24" id="M"/><path d="M117-194c89-4 53 116 60 194h-32v-121c0-31-8-49-39-48C34-167 62-67 57 0H25l-1-190h30c1 10-1 24 2 32 11-22 29-35 61-36" id="N"/><g id="b"><use transform="matrix(0.05,0,0,0.05,0,0)" xlink:href="#J"/><use transform="matrix(0.05,0,0,0.05,10,0)" xlink:href="#K"/><use transform="matrix(0.05,0,0,0.05,20,0)" xlink:href="#L"/><use transform="matrix(0.05,0,0,0.05,30,0)" xlink:href="#M"/><use transform="matrix(0.05,0,0,0.05,33.95,0)" xlink:href="#N"/></g><path d="M212-179c-10-28-35-45-73-45-59 0-87 40-87 99 0 60 29 101 89 101 43 0 62-24 78-52l27 14C228-24 195 4 139 4 59 4 22-46 18-125c-6-104 99-153 187-111 19 9 31 26 39 46" id="O"/><path d="M114-163C36-179 61-72 57 0H25l-1-190h30c1 12-1 29 2 39 6-27 23-49 58-41v29" id="P"/><path d="M100-194c63 0 86 42 84 106H49c0 40 14 67 53 68 26 1 43-12 49-29l28 8c-11 28-37 45-77 45C44 4 14-33 15-96c1-61 26-98 85-98zm52 81c6-60-76-77-97-28-3 7-6 17-6 28h103" id="Q"/><path d="M141-36C126-15 110 5 73 4 37 3 15-17 15-53c-1-64 63-63 125-63 3-35-9-54-41-54-24 1-41 7-42 31l-33-3c5-37 33-52 76-52 45 0 72 20 72 64v82c-1 20 7 32 28 27v20c-31 9-61-2-59-35zM48-53c0 20 12 33 32 33 41-3 63-29 60-74-43 2-92-5-92 41" id="R"/><path d="M59-47c-2 24 18 29 38 22v24C64 9 27 4 27-40v-127H5v-23h24l9-43h21v43h35v23H59v120" id="S"/><g id="c"><use transform="matrix(0.05,0,0,0.05,0,0)" xlink:href="#O"/><use transform="matrix(0.05,0,0,0.05,12.950000000000001,0)" xlink:href="#P"/><use transform="matrix(0.05,0,0,0.05,18.900000000000002,0)" xlink:href="#Q"/><use transform="matrix(0.05,0,0,0.05,28.900000000000002,0)" xlink:href="#R"/><use transform="matrix(0.05,0,0,0.05,38.900000000000006,0)" xlink:href="#S"/><use transform="matrix(0.05,0,0,0.05,43.900000000000006,0)" xlink:href="#Q"/></g><path d="M30-248c87 1 191-15 191 75 0 78-77 80-158 76V0H30v-248zm33 125c57 0 124 11 124-50 0-59-68-47-124-48v98" id="T"/><path d="M101-234c-31-9-42 10-38 44h38v23H63V0H32v-167H5v-23h27c-7-52 17-82 69-68v24" id="U"/><path d="M24 0v-261h32V0H24" id="V"/><g id="d"><use transform="matrix(0.05,0,0,0.05,0,0)" xlink:href="#T"/><use transform="matrix(0.05,0,0,0.05,12,0)" xlink:href="#P"/><use transform="matrix(0.05,0,0,0.05,17.95,0)" xlink:href="#K"/><use transform="matrix(0.05,0,0,0.05,27.950000000000003,0)" xlink:href="#U"/><use transform="matrix(0.05,0,0,0.05,32.95,0)" xlink:href="#M"/><use transform="matrix(0.05,0,0,0.05,36.900000000000006,0)" xlink:href="#V"/><use transform="matrix(0.05,0,0,0.05,40.85000000000001,0)" xlink:href="#Q"/></g><path d="M185-189c-5-48-123-54-124 2 14 75 158 14 163 119 3 78-121 87-175 55-17-10-28-26-33-46l33-7c5 56 141 63 141-1 0-78-155-14-162-118-5-82 145-84 179-34 5 7 8 16 11 25" id="W"/><path d="M206 0h-36l-40-164L89 0H53L-1-190h32L70-26l43-164h34l41 164 42-164h31" id="X"/><path d="M115-194c55 1 70 41 70 98S169 2 115 4C84 4 66-9 55-30l1 105H24l-1-265h31l2 30c10-21 28-34 59-34zm-8 174c40 0 45-34 45-75s-6-73-45-74c-42 0-51 32-51 76 0 43 10 73 51 73" id="Y"/><g id="e"><use transform="matrix(0.05,0,0,0.05,0,0)" xlink:href="#W"/><use transform="matrix(0.05,0,0,0.05,12,0)" xlink:href="#X"/><use transform="matrix(0.05,0,0,0.05,24.950000000000003,0)" xlink:href="#M"/><use transform="matrix(0.05,0,0,0.05,28.900000000000002,0)" xlink:href="#Y"/><use transform="matrix(0.05,0,0,0.05,38.900000000000006,0)" xlink:href="#Q"/></g><path d="M127-220V0H93v-220H8v-28h204v28h-85" id="Z"/><path d="M106-169C34-169 62-67 57 0H25v-261h32l-1 103c12-21 28-36 61-36 89 0 53 116 60 194h-32v-121c2-32-8-49-39-48" id="aa"/><path d="M84 4C-5 8 30-112 23-190h32v120c0 31 7 50 39 49 72-2 45-101 50-169h31l1 190h-30c-1-10 1-25-2-33-11 22-28 36-60 37" id="ab"/><g id="f"><use transform="matrix(0.05,0,0,0.05,0,0)" xlink:href="#Z"/><use transform="matrix(0.05,0,0,0.05,10.950000000000001,0)" xlink:href="#aa"/><use transform="matrix(0.05,0,0,0.05,20.950000000000003,0)" xlink:href="#P"/><use transform="matrix(0.05,0,0,0.05,26.900000000000002,0)" xlink:href="#K"/><use transform="matrix(0.05,0,0,0.05,36.900000000000006,0)" xlink:href="#ab"/><use transform="matrix(0.05,0,0,0.05,46.900000000000006,0)" xlink:href="#L"/><use transform="matrix(0.05,0,0,0.05,56.900000000000006,0)" xlink:href="#aa"/></g><path d="M240 0l2-218c-23 76-54 145-80 218h-23L58-218 59 0H30v-248h44l77 211c21-75 51-140 76-211h43V0h-30" id="ac"/><path d="M108 0H70L1-190h34L89-25l56-165h34" id="ad"/><path d="M135-143c-3-34-86-38-87 0 15 53 115 12 119 90S17 21 10-45l28-5c4 36 97 45 98 0-10-56-113-15-118-90-4-57 82-63 122-42 12 7 21 19 24 35" id="ae"/><g id="g"><use transform="matrix(0.05,0,0,0.05,0,0)" xlink:href="#ac"/><use transform="matrix(0.05,0,0,0.05,14.950000000000001,0)" xlink:href="#K"/><use transform="matrix(0.05,0,0,0.05,24.950000000000003,0)" xlink:href="#ad"/><use transform="matrix(0.05,0,0,0.05,33.95,0)" xlink:href="#M"/><use transform="matrix(0.05,0,0,0.05,37.900000000000006,0)" xlink:href="#Q"/><use transform="matrix(0.05,0,0,0.05,47.900000000000006,0)" xlink:href="#ae"/></g><path d="M137 0h-34L2-248h35l83 218 83-218h36" id="af"/><g id="h"><use transform="matrix(0.05,0,0,0.05,0,0)" xlink:href="#af"/><use transform="matrix(0.05,0,0,0.05,11.65,0)" xlink:href="#M"/><use transform="matrix(0.05,0,0,0.05,15.600000000000001,0)" xlink:href="#Q"/><use transform="matrix(0.05,0,0,0.05,25.6,0)" xlink:href="#X"/></g><g id="i"><use transform="matrix(0.05,0,0,0.05,0,0)" xlink:href="#Z"/><use transform="matrix(0.05,0,0,0.05,10.950000000000001,0)" xlink:href="#aa"/><use transform="matrix(0.05,0,0,0.05,20.950000000000003,0)" xlink:href="#Q"/><use transform="matrix(0.05,0,0,0.05,30.950000000000003,0)" xlink:href="#R"/><use transform="matrix(0.05,0,0,0.05,40.95,0)" xlink:href="#S"/><use transform="matrix(0.05,0,0,0.05,45.95,0)" xlink:href="#P"/><use transform="matrix(0.05,0,0,0.05,51.900000000000006,0)" xlink:href="#Q"/><use transform="matrix(0.05,0,0,0.05,61.900000000000006,0)" xlink:href="#ae"/></g><g id="j"><use transform="matrix(0.05,0,0,0.05,0,0)" xlink:href="#Z"/><use transform="matrix(0.05,0,0,0.05,10.950000000000001,0)" xlink:href="#aa"/><use transform="matrix(0.05,0,0,0.05,20.950000000000003,0)" xlink:href="#Q"/><use transform="matrix(0.05,0,0,0.05,30.950000000000003,0)" xlink:href="#R"/><use transform="matrix(0.05,0,0,0.05,40.95,0)" xlink:href="#S"/><use transform="matrix(0.05,0,0,0.05,45.95,0)" xlink:href="#P"/><use transform="matrix(0.05,0,0,0.05,51.900000000000006,0)" xlink:href="#Q"/></g><path d="M16-82v-28h88v28H16" id="ag"/><g id="k"><use transform="matrix(0.05,0,0,0.05,0,0)" xlink:href="#W"/><use transform="matrix(0.05,0,0,0.05,12,0)" xlink:href="#M"/><use transform="matrix(0.05,0,0,0.05,15.949999999999998,0)" xlink:href="#L"/><use transform="matrix(0.05,0,0,0.05,25.950000000000003,0)" xlink:href="#N"/><use transform="matrix(0.05,0,0,0.05,35.95,0)" xlink:href="#ag"/><use transform="matrix(0.05,0,0,0.05,41.900000000000006,0)" xlink:href="#ab"/><use transform="matrix(0.05,0,0,0.05,51.900000000000006,0)" xlink:href="#Y"/></g><path d="M205 0l-28-72H64L36 0H1l101-248h38L239 0h-34zm-38-99l-47-123c-12 45-31 82-46 123h93" id="ah"/><path d="M85-194c31 0 48 13 60 33l-1-100h32l1 261h-30c-2-10 0-23-3-31C134-8 116 4 85 4 32 4 16-35 15-94c0-66 23-100 70-100zm9 24c-40 0-46 34-46 75 0 40 6 74 45 74 42 0 51-32 51-76 0-42-9-74-50-73" id="ai"/><g id="l"><use transform="matrix(0.05,0,0,0.05,0,0)" xlink:href="#ah"/><use transform="matrix(0.05,0,0,0.05,12,0)" xlink:href="#ai"/><use transform="matrix(0.05,0,0,0.05,22,0)" xlink:href="#ai"/></g><path d="M266 0h-40l-56-210L115 0H75L2-248h35L96-30l15-64 43-154h32l59 218 59-218h35" id="aj"/><path d="M96-169c-40 0-48 33-48 73s9 75 48 75c24 0 41-14 43-38l32 2c-6 37-31 61-74 61-59 0-76-41-82-99-10-93 101-131 147-64 4 7 5 14 7 22l-32 3c-4-21-16-35-41-35" id="ak"/><g id="m"><use transform="matrix(0.05,0,0,0.05,0,0)" xlink:href="#aj"/><use transform="matrix(0.05,0,0,0.05,16.3,0)" xlink:href="#R"/><use transform="matrix(0.05,0,0,0.05,26.3,0)" xlink:href="#S"/><use transform="matrix(0.05,0,0,0.05,31.3,0)" xlink:href="#ak"/><use transform="matrix(0.05,0,0,0.05,40.3,0)" xlink:href="#aa"/><use transform="matrix(0.05,0,0,0.05,50.3,0)" xlink:href="#Q"/><use transform="matrix(0.05,0,0,0.05,60.29999999999999,0)" xlink:href="#P"/><use transform="matrix(0.05,0,0,0.05,66.25,0)" xlink:href="#ae"/></g><g id="n"><use transform="matrix(0.05,0,0,0.05,0,0)" xlink:href="#Z"/><use transform="matrix(0.05,0,0,0.05,10.950000000000001,0)" xlink:href="#aa"/><use transform="matrix(0.05,0,0,0.05,20.950000000000003,0)" xlink:href="#Q"/><use transform="matrix(0.05,0,0,0.05,30.950000000000003,0)" xlink:href="#R"/><use transform="matrix(0.05,0,0,0.05,40.95,0)" xlink:href="#S"/><use transform="matrix(0.05,0,0,0.05,45.95,0)" xlink:href="#P"/><use transform="matrix(0.05,0,0,0.05,51.900000000000006,0)" xlink:href="#Q"/></g><g id="o"><use transform="matrix(0.05,0,0,0.05,0,0)" xlink:href="#ac"/><use transform="matrix(0.05,0,0,0.05,14.950000000000001,0)" xlink:href="#R"/><use transform="matrix(0.05,0,0,0.05,24.950000000000003,0)" xlink:href="#S"/><use transform="matrix(0.05,0,0,0.05,29.950000000000003,0)" xlink:href="#ak"/><use transform="matrix(0.05,0,0,0.05,38.95,0)" xlink:href="#aa"/><use transform="matrix(0.05,0,0,0.05,48.95,0)" xlink:href="#Q"/><use transform="matrix(0.05,0,0,0.05,58.95,0)" xlink:href="#ae"/></g><path d="M232-93c-1 65-40 97-104 97C67 4 28-28 28-90v-158h33c8 89-33 224 67 224 102 0 64-133 71-224h33v155" id="al"/><path d="M210-169c-67 3-38 105-44 169h-31v-121c0-29-5-50-35-48C34-165 62-65 56 0H25l-1-190h30c1 10-1 24 2 32 10-44 99-50 107 0 11-21 27-35 58-36 85-2 47 119 55 194h-31v-121c0-29-5-49-35-48" id="am"/><g id="q"><use transform="matrix(0.05,0,0,0.05,0,0)" xlink:href="#al"/><use transform="matrix(0.05,0,0,0.05,12.950000000000001,0)" xlink:href="#ae"/><use transform="matrix(0.05,0,0,0.05,21.950000000000003,0)" xlink:href="#Q"/><use transform="matrix(0.05,0,0,0.05,31.950000000000003,0)" xlink:href="#P"/><use transform="matrix(0.05,0,0,0.05,37.900000000000006,0)" xlink:href="#N"/><use transform="matrix(0.05,0,0,0.05,47.900000000000006,0)" xlink:href="#R"/><use transform="matrix(0.05,0,0,0.05,57.900000000000006,0)" xlink:href="#am"/><use transform="matrix(0.05,0,0,0.05,72.85000000000001,0)" xlink:href="#Q"/></g><g id="r"><use transform="matrix(0.05,0,0,0.05,0,0)" xlink:href="#O"/><use transform="matrix(0.05,0,0,0.05,12.950000000000001,0)" xlink:href="#aa"/><use transform="matrix(0.05,0,0,0.05,22.950000000000003,0)" xlink:href="#K"/><use transform="matrix(0.05,0,0,0.05,32.95,0)" xlink:href="#K"/><use transform="matrix(0.05,0,0,0.05,42.95,0)" xlink:href="#ae"/><use transform="matrix(0.05,0,0,0.05,51.95,0)" xlink:href="#Q"/></g><g id="s"><use transform="matrix(0.05,0,0,0.05,0,0)" xlink:href="#T"/><use transform="matrix(0.05,0,0,0.05,12,0)" xlink:href="#R"/><use transform="matrix(0.05,0,0,0.05,22,0)" xlink:href="#ae"/><use transform="matrix(0.05,0,0,0.05,31,0)" xlink:href="#ae"/><use transform="matrix(0.05,0,0,0.05,40,0)" xlink:href="#X"/><use transform="matrix(0.05,0,0,0.05,52.95,0)" xlink:href="#K"/><use transform="matrix(0.05,0,0,0.05,62.95,0)" xlink:href="#P"/><use transform="matrix(0.05,0,0,0.05,68.9,0)" xlink:href="#ai"/></g><path d="M190 0L58-211 59 0H30v-248h39L202-35l-2-213h31V0h-41" id="an"/><g id="t"><use transform="matrix(0.05,0,0,0.05,0,0)" xlink:href="#an"/><use transform="matrix(0.05,0,0,0.05,12.950000000000001,0)" xlink:href="#R"/><use transform="matrix(0.05,0,0,0.05,22.950000000000003,0)" xlink:href="#am"/><use transform="matrix(0.05,0,0,0.05,37.900000000000006,0)" xlink:href="#Q"/></g><g id="u"><use transform="matrix(0.05,0,0,0.05,0,0)" xlink:href="#an"/><use transform="matrix(0.05,0,0,0.05,12.950000000000001,0)" xlink:href="#K"/><use transform="matrix(0.05,0,0,0.05,22.950000000000003,0)" xlink:href="#S"/><use transform="matrix(0.05,0,0,0.05,27.950000000000003,0)" xlink:href="#M"/><use transform="matrix(0.05,0,0,0.05,31.900000000000002,0)" xlink:href="#U"/><use transform="matrix(0.05,0,0,0.05,36.900000000000006,0)" xlink:href="#M"/><use transform="matrix(0.05,0,0,0.05,40.85000000000001,0)" xlink:href="#ak"/><use transform="matrix(0.05,0,0,0.05,49.85000000000001,0)" xlink:href="#R"/><use transform="matrix(0.05,0,0,0.05,59.85,0)" xlink:href="#S"/><use transform="matrix(0.05,0,0,0.05,64.85000000000001,0)" xlink:href="#M"/><use transform="matrix(0.05,0,0,0.05,68.80000000000001,0)" xlink:href="#K"/><use transform="matrix(0.05,0,0,0.05,78.80000000000001,0)" xlink:href="#N"/><use transform="matrix(0.05,0,0,0.05,88.80000000000001,0)" xlink:href="#ae"/></g><path fill="#333" d="M18-100v-36l175-74v27L42-118l151 64v27" id="ao"/><path fill="#333" d="M24-231v-30h32v30H24zM24 0v-190h32V0H24" id="ap"/><path fill="#333" d="M117-194c89-4 53 116 60 194h-32v-121c0-31-8-49-39-48C34-167 62-67 57 0H25l-1-190h30c1 10-1 24 2 32 11-22 29-35 61-36" id="aq"/><path fill="#333" d="M96-169c-40 0-48 33-48 73s9 75 48 75c24 0 41-14 43-38l32 2c-6 37-31 61-74 61-59 0-76-41-82-99-10-93 101-131 147-64 4 7 5 14 7 22l-32 3c-4-21-16-35-41-35" id="ar"/><path fill="#333" d="M24 0v-261h32V0H24" id="as"/><path fill="#333" d="M84 4C-5 8 30-112 23-190h32v120c0 31 7 50 39 49 72-2 45-101 50-169h31l1 190h-30c-1-10 1-25-2-33-11 22-28 36-60 37" id="at"/><path fill="#333" d="M85-194c31 0 48 13 60 33l-1-100h32l1 261h-30c-2-10 0-23-3-31C134-8 116 4 85 4 32 4 16-35 15-94c0-66 23-100 70-100zm9 24c-40 0-46 34-46 75 0 40 6 74 45 74 42 0 51-32 51-76 0-42-9-74-50-73" id="au"/><path fill="#333" d="M18-27v-27l151-64-151-65v-27l175 74v36" id="av"/><g id="v"><use transform="matrix(0.04320987654320987,0,0,0.04320987654320987,0,0)" xlink:href="#ao"/><use transform="matrix(0.04320987654320987,0,0,0.04320987654320987,9.074074074074073,0)" xlink:href="#ao"/><use transform="matrix(0.04320987654320987,0,0,0.04320987654320987,18.148148148148145,0)" xlink:href="#ap"/><use transform="matrix(0.04320987654320987,0,0,0.04320987654320987,21.561728395061724,0)" xlink:href="#aq"/><use transform="matrix(0.04320987654320987,0,0,0.04320987654320987,30.2037037037037,0)" xlink:href="#ar"/><use transform="matrix(0.04320987654320987,0,0,0.04320987654320987,37.981481481481474,0)" xlink:href="#as"/><use transform="matrix(0.04320987654320987,0,0,0.04320987654320987,41.395061728395056,0)" xlink:href="#at"/><use transform="matrix(0.04320987654320987,0,0,0.04320987654320987,50.037037037037024,0)" xlink:href="#au"/><use transform="matrix(0.04320987654320987,0,0,0.04320987654320987,58.67901234567901,0)" xlink:href="#H"/><use transform="matrix(0.04320987654320987,0,0,0.04320987654320987,67.32098765432097,0)" xlink:href="#av"/><use transform="matrix(0.04320987654320987,0,0,0.04320987654320987,76.39506172839505,0)" xlink:href="#av"/></g><path d="M233-177c-1 41-23 64-60 70L243 0h-38l-65-103H63V0H30v-248c88 3 205-21 203 71zM63-129c60-2 137 13 137-47 0-61-80-42-137-45v92" id="aw"/><g id="w"><use transform="matrix(0.05,0,0,0.05,0,0)" xlink:href="#aw"/><use transform="matrix(0.05,0,0,0.05,12.950000000000001,0)" xlink:href="#M"/><use transform="matrix(0.05,0,0,0.05,16.900000000000002,0)" xlink:href="#L"/><use transform="matrix(0.05,0,0,0.05,26.900000000000002,0)" xlink:href="#aa"/><use transform="matrix(0.05,0,0,0.05,36.900000000000006,0)" xlink:href="#S"/></g><g id="x"><use transform="matrix(0.05,0,0,0.05,0,0)" xlink:href="#J"/><use transform="matrix(0.05,0,0,0.05,10,0)" xlink:href="#Q"/><use transform="matrix(0.05,0,0,0.05,20,0)" xlink:href="#U"/><use transform="matrix(0.05,0,0,0.05,25,0)" xlink:href="#S"/></g><g id="y"><use transform="matrix(0.05,0,0,0.05,0,0)" xlink:href="#W"/><use transform="matrix(0.05,0,0,0.05,12,0)" xlink:href="#Q"/><use transform="matrix(0.05,0,0,0.05,22,0)" xlink:href="#R"/><use transform="matrix(0.05,0,0,0.05,32,0)" xlink:href="#P"/><use transform="matrix(0.05,0,0,0.05,37.95,0)" xlink:href="#ak"/><use transform="matrix(0.05,0,0,0.05,46.95,0)" xlink:href="#aa"/></g><path d="M63-220v92h138v28H63V0H30v-248h175v28H63" id="ax"/><g id="z"><use transform="matrix(0.05,0,0,0.05,0,0)" xlink:href="#ax"/><use transform="matrix(0.05,0,0,0.05,10.950000000000001,0)" xlink:href="#K"/><use transform="matrix(0.05,0,0,0.05,20.950000000000003,0)" xlink:href="#P"/></g><g id="A"><use transform="matrix(0.05,0,0,0.05,0,0)" xlink:href="#al"/><use transform="matrix(0.05,0,0,0.05,12.950000000000001,0)" xlink:href="#ae"/><use transform="matrix(0.05,0,0,0.05,21.950000000000003,0)" xlink:href="#Q"/><use transform="matrix(0.05,0,0,0.05,31.950000000000003,0)" xlink:href="#P"/><use transform="matrix(0.05,0,0,0.05,37.900000000000006,0)" xlink:href="#ae"/></g><g id="B"><use transform="matrix(0.05,0,0,0.05,0,0)" xlink:href="#ah"/><use transform="matrix(0.05,0,0,0.05,12,0)" xlink:href="#ak"/><use transform="matrix(0.05,0,0,0.05,21,0)" xlink:href="#ak"/><use transform="matrix(0.05,0,0,0.05,30,0)" xlink:href="#Q"/><use transform="matrix(0.05,0,0,0.05,40,0)" xlink:href="#Y"/><use transform="matrix(0.05,0,0,0.05,50,0)" xlink:href="#S"/></g><g id="C"><use transform="matrix(0.05,0,0,0.05,0,0)" xlink:href="#Z"/><use transform="matrix(0.05,0,0,0.05,10.950000000000001,0)" xlink:href="#aa"/><use transform="matrix(0.05,0,0,0.05,20.950000000000003,0)" xlink:href="#Q"/><use transform="matrix(0.05,0,0,0.05,30.950000000000003,0)" xlink:href="#R"/><use transform="matrix(0.05,0,0,0.05,40.95,0)" xlink:href="#S"/><use transform="matrix(0.05,0,0,0.05,45.95,0)" xlink:href="#P"/><use transform="matrix(0.05,0,0,0.05,51.900000000000006,0)" xlink:href="#Q"/></g><path d="M33 0v-248h34V0H33" id="ay"/><g id="D"><use transform="matrix(0.05,0,0,0.05,0,0)" xlink:href="#ay"/><use transform="matrix(0.05,0,0,0.05,5,0)" xlink:href="#N"/><use transform="matrix(0.05,0,0,0.05,15,0)" xlink:href="#ad"/><use transform="matrix(0.05,0,0,0.05,24,0)" xlink:href="#M"/><use transform="matrix(0.05,0,0,0.05,27.950000000000003,0)" xlink:href="#S"/><use transform="matrix(0.05,0,0,0.05,32.95,0)" xlink:href="#Q"/><use transform="matrix(0.05,0,0,0.05,42.95,0)" xlink:href="#ae"/></g><path d="M30-248c118-7 216 8 213 122C240-48 200 0 122 0H30v-248zM63-27c89 8 146-16 146-99s-60-101-146-95v194" id="az"/><g id="E"><use transform="matrix(0.05,0,0,0.05,0,0)" xlink:href="#az"/><use transform="matrix(0.05,0,0,0.05,12.950000000000001,0)" xlink:href="#Q"/><use transform="matrix(0.05,0,0,0.05,22.950000000000003,0)" xlink:href="#ak"/><use transform="matrix(0.05,0,0,0.05,31.950000000000003,0)" xlink:href="#V"/><use transform="matrix(0.05,0,0,0.05,35.900000000000006,0)" xlink:href="#M"/><use transform="matrix(0.05,0,0,0.05,39.85000000000001,0)" xlink:href="#N"/><use transform="matrix(0.05,0,0,0.05,49.85000000000001,0)" xlink:href="#Q"/></g></defs></g></svg>