<svg width="517" height="225" viewBox="0 0 517 225" fill="none" xmlns="http://www.w3.org/2000/svg">
<path d="M136.93 92.1641H96.4297V134H75.3359V31.625H141.992V48.7109H96.4297V75.1484H136.93V92.1641ZM175.32 117.055H220.109V134H154.227V31.625H175.32V117.055ZM254.703 134H233.609V31.625H254.703V134ZM354.688 99.8984C353.891 110.914 349.812 119.586 342.453 125.914C335.141 132.242 325.484 135.406 313.484 135.406C300.359 135.406 290.023 131 282.477 122.188C274.977 113.328 271.227 101.188 271.227 85.7656V79.5078C271.227 69.6641 272.961 60.9922 276.43 53.4922C279.898 45.9922 284.844 40.25 291.266 36.2656C297.734 32.2344 305.234 30.2188 313.766 30.2188C325.578 30.2188 335.094 33.3828 342.312 39.7109C349.531 46.0391 353.703 54.9219 354.828 66.3594H333.734C333.219 59.75 331.367 54.9688 328.18 52.0156C325.039 49.0156 320.234 47.5156 313.766 47.5156C306.734 47.5156 301.461 50.0469 297.945 55.1094C294.477 60.125 292.695 67.9297 292.602 78.5234V86.2578C292.602 97.3203 294.266 105.406 297.594 110.516C300.969 115.625 306.266 118.18 313.484 118.18C320 118.18 324.852 116.703 328.039 113.75C331.273 110.75 333.125 106.133 333.594 99.8984H354.688ZM400.602 92.9375L389.633 104.75V134H368.539V31.625H389.633V78.0312L398.914 65.3047L425 31.625H450.945L414.594 77.1172L452 134H426.898L400.602 92.9375Z" fill="black"/>
<rect x="479" y="34" width="14" height="100" fill="white"/>
<rect x="500" y="34" width="14" height="100" fill="white"/>
<path d="M424 77L471.36 32L472 134L424 77Z" fill="white"/>
</svg>
